# xmcd
#
# Track frame offsets: 
#        150
#        18994
#        36325
#        54421
#        75758
#        92485
#
# Disc length: 1462 seconds
#
# Revision: 0
# Processed by: cddbd v1.5.2PL0 Copyright (c) Steve Scherf et al.
# Submitted via: ExactAudioCopy v0.99pb4
#
DISCID=3505b406
DTITLE=Pele - High-Ace
DYEAR=2008
DGENRE=World
TTITLE0=Pan In Harmony
TTITLE1=You Are The Of My Life
TTITLE2=Jericho
TTITLE3=Sunset
TTITLE4=Do What You Want
TTITLE5=Choo Choo
EXTD=
EXTT0=
EXTT1=
EXTT2=
EXTT3=
EXTT4=
EXTT5=
PLAYORDER=
